REM DIRINDEX 1\3,1\2\4,1\2\5,1\2\6
REM DIRNAME cjc137,folder01,folder02,folder03,folder04,folder05
TITLE ""
FILE "151.mp3" MP3
  TRACK 01 AUDIO
    TITLE "3:cjc137_6661"
    INDEX 01 00:00:00
  TRACK 02 AUDIO
    TITLE "0:"
    INDEX 01 00:03:08
  TRACK 03 AUDIO
    TITLE "4:cjc137_6662"
    INDEX 01 00:04:11
  TRACK 04 AUDIO
    TITLE "0:"
    INDEX 01 00:05:44
  TRACK 05 AUDIO
    TITLE "6:cjc137_6663"
    INDEX 01 00:05:48
  TRACK 06 AUDIO
    TITLE "0:"
    INDEX 01 00:06:67
  TRACK 07 AUDIO
    TITLE "5:cjc137_6664"
    INDEX 01 00:06:73
  TRACK 08 AUDIO
    TITLE "0:"
    INDEX 01 00:08:28
  TRACK 09 AUDIO
    TITLE "4:cjc137_6665"
    INDEX 01 00:09:36
  TRACK 10 AUDIO
    TITLE "0:"
    INDEX 01 00:10:55
  TRACK 11 AUDIO
    TITLE "6:cjc137_6666"
    INDEX 01 00:10:65
  TRACK 12 AUDIO
    TITLE "0:"
    INDEX 01 00:12:05
  TRACK 13 AUDIO
    TITLE "5:cjc137_6667"
    INDEX 01 00:12:09
  TRACK 14 AUDIO
    TITLE "0:"
    INDEX 01 00:13:28
  TRACK 15 AUDIO
    TITLE "4:cjc137_6668"
    INDEX 01 00:14:37
  TRACK 16 AUDIO
    TITLE "0:"
    INDEX 01 00:15:50
  TRACK 17 AUDIO
    TITLE "6:cjc137_6669"
    INDEX 01 00:15:58
  TRACK 18 AUDIO
    TITLE "0:"
    INDEX 01 00:16:51
  TRACK 19 AUDIO
    TITLE "5:cjc137_6670"
    INDEX 01 00:16:53
  TRACK 20 AUDIO
    TITLE "0:"
    INDEX 01 00:17:70
  TRACK 21 AUDIO
    TITLE "4:cjc137_6671"
    INDEX 01 00:19:03
  TRACK 22 AUDIO
    TITLE "0:"
    INDEX 01 00:20:49
  TRACK 23 AUDIO
    TITLE "6:cjc137_6672"
    INDEX 01 00:20:57
  TRACK 24 AUDIO
    TITLE "0:"
    INDEX 01 00:23:14
  TRACK 25 AUDIO
    TITLE "5:cjc137_6673"
    INDEX 01 00:23:18
  TRACK 26 AUDIO
    TITLE "0:"
    INDEX 01 00:24:65
  TRACK 27 AUDIO
    TITLE "4:cjc137_6674"
    INDEX 01 00:25:74
  TRACK 28 AUDIO
    TITLE "0:"
    INDEX 01 00:27:59
  TRACK 29 AUDIO
    TITLE "6:cjc137_6675"
    INDEX 01 00:27:67
  TRACK 30 AUDIO
    TITLE "0:"
    INDEX 01 00:29:68
  TRACK 31 AUDIO
    TITLE "5:cjc137_6676"
    INDEX 01 00:29:72
  TRACK 32 AUDIO
    TITLE "0:"
    INDEX 01 00:31:59
  TRACK 33 AUDIO
    TITLE "4:cjc137_6677"
    INDEX 01 00:32:66
  TRACK 34 AUDIO
    TITLE "0:"
    INDEX 01 00:35:49
  TRACK 35 AUDIO
    TITLE "6:cjc137_6678"
    INDEX 01 00:35:59
  TRACK 36 AUDIO
    TITLE "0:"
    INDEX 01 00:38:08
  TRACK 37 AUDIO
    TITLE "5:cjc137_6679"
    INDEX 01 00:38:16
  TRACK 38 AUDIO
    TITLE "0:"
    INDEX 01 00:41:00
  TRACK 39 AUDIO
    TITLE "4:cjc137_6680"
    INDEX 01 00:42:12
  TRACK 40 AUDIO
    TITLE "0:"
    INDEX 01 00:43:29
  TRACK 41 AUDIO
    TITLE "6:cjc137_6681"
    INDEX 01 00:43:35
  TRACK 42 AUDIO
    TITLE "0:"
    INDEX 01 00:45:39
  TRACK 43 AUDIO
    TITLE "5:cjc137_6682"
    INDEX 01 00:45:47
  TRACK 44 AUDIO
    TITLE "0:"
    INDEX 01 00:46:66
  TRACK 45 AUDIO
    TITLE "4:cjc137_6683"
    INDEX 01 00:47:72
  TRACK 46 AUDIO
    TITLE "0:"
    INDEX 01 00:49:08
  TRACK 47 AUDIO
    TITLE "6:cjc137_6684"
    INDEX 01 00:49:14
  TRACK 48 AUDIO
    TITLE "0:"
    INDEX 01 00:50:23
  TRACK 49 AUDIO
    TITLE "5:cjc137_6685"
    INDEX 01 00:50:25
  TRACK 50 AUDIO
    TITLE "0:"
    INDEX 01 00:51:38
  TRACK 51 AUDIO
    TITLE "4:cjc137_6686"
    INDEX 01 00:52:47
  TRACK 52 AUDIO
    TITLE "0:"
    INDEX 01 00:54:30
  TRACK 53 AUDIO
    TITLE "6:cjc137_6687"
    INDEX 01 00:54:34
  TRACK 54 AUDIO
    TITLE "0:"
    INDEX 01 00:55:63
  TRACK 55 AUDIO
    TITLE "5:cjc137_6688"
    INDEX 01 00:55:67
  TRACK 56 AUDIO
    TITLE "0:"
    INDEX 01 00:57:52
  TRACK 57 AUDIO
    TITLE "4:cjc137_6689"
    INDEX 01 00:58:60
  TRACK 58 AUDIO
    TITLE "0:"
    INDEX 01 01:00:19
  TRACK 59 AUDIO
    TITLE "6:cjc137_6690"
    INDEX 01 01:00:21
  TRACK 60 AUDIO
    TITLE "0:"
    INDEX 01 01:01:36
  TRACK 61 AUDIO
    TITLE "5:cjc137_6691"
    INDEX 01 01:01:42
  TRACK 62 AUDIO
    TITLE "0:"
    INDEX 01 01:03:02
  TRACK 63 AUDIO
    TITLE "4:cjc137_6692"
    INDEX 01 01:04:09
  TRACK 64 AUDIO
    TITLE "0:"
    INDEX 01 01:05:68
  TRACK 65 AUDIO
    TITLE "6:cjc137_6693"
    INDEX 01 01:05:73
  TRACK 66 AUDIO
    TITLE "0:"
    INDEX 01 01:07:14
  TRACK 67 AUDIO
    TITLE "5:cjc137_6694"
    INDEX 01 01:07:19
  TRACK 68 AUDIO
    TITLE "0:"
    INDEX 01 01:09:01
  TRACK 69 AUDIO
    TITLE "4:cjc137_6695"
    INDEX 01 01:10:10
  TRACK 70 AUDIO
    TITLE "0:"
    INDEX 01 01:11:29
  TRACK 71 AUDIO
    TITLE "6:cjc137_6696"
    INDEX 01 01:11:39
  TRACK 72 AUDIO
    TITLE "0:"
    INDEX 01 01:13:38
  TRACK 73 AUDIO
    TITLE "5:cjc137_6697"
    INDEX 01 01:13:44
  TRACK 74 AUDIO
    TITLE "0:"
    INDEX 01 01:14:65
  TRACK 75 AUDIO
    TITLE "4:cjc137_6698"
    INDEX 01 01:16:01
  TRACK 76 AUDIO
    TITLE "0:"
    INDEX 01 01:17:59
  TRACK 77 AUDIO
    TITLE "6:cjc137_6699"
    INDEX 01 01:17:65
  TRACK 78 AUDIO
    TITLE "0:"
    INDEX 01 01:19:74
  TRACK 79 AUDIO
    TITLE "5:cjc137_6700"
    INDEX 01 01:20:04
  TRACK 80 AUDIO
    TITLE "0:"
    INDEX 01 01:21:65
  TRACK 81 AUDIO
    TITLE "4:cjc137_6701"
    INDEX 01 01:22:74
  TRACK 82 AUDIO
    TITLE "0:"
    INDEX 01 01:24:14
  TRACK 83 AUDIO
    TITLE "6:cjc137_6702"
    INDEX 01 01:24:20
  TRACK 84 AUDIO
    TITLE "0:"
    INDEX 01 01:25:17
  TRACK 85 AUDIO
    TITLE "5:cjc137_6703"
    INDEX 01 01:25:25
  TRACK 86 AUDIO
    TITLE "0:"
    INDEX 01 01:26:42
  TRACK 87 AUDIO
    TITLE "4:cjc137_6704"
    INDEX 01 01:27:48
  TRACK 88 AUDIO
    TITLE "0:"
    INDEX 01 01:29:01
  TRACK 89 AUDIO
    TITLE "6:cjc137_6705"
    INDEX 01 01:29:05
  TRACK 90 AUDIO
    TITLE "0:"
    INDEX 01 01:31:43
  TRACK 91 AUDIO
    TITLE "5:cjc137_6706"
    INDEX 01 01:31:47
  TRACK 92 AUDIO
    TITLE "0:"
    INDEX 01 01:32:74
  TRACK 93 AUDIO
    TITLE "4:cjc137_6707"
    INDEX 01 01:34:08
  TRACK 94 AUDIO
    TITLE "0:"
    INDEX 01 01:35:31
  TRACK 95 AUDIO
    TITLE "6:cjc137_6708"
    INDEX 01 01:35:39
  TRACK 96 AUDIO
    TITLE "0:"
    INDEX 01 01:37:30
  TRACK 97 AUDIO
    TITLE "5:cjc137_6709"
    INDEX 01 01:37:38
  TRACK 98 AUDIO
    TITLE "0:"
    INDEX 01 01:38:59
  TRACK 99 AUDIO
    TITLE "4:cjc137_6710"
    INDEX 01 01:39:68
  TRACK 100 AUDIO
    TITLE "0:"
    INDEX 01 01:40:74
  TRACK 101 AUDIO
    TITLE "6:cjc137_6711"
    INDEX 01 01:41:05
  TRACK 102 AUDIO
    TITLE "0:"
    INDEX 01 01:42:20
  TRACK 103 AUDIO
    TITLE "5:cjc137_6712"
    INDEX 01 01:42:26
  TRACK 104 AUDIO
    TITLE "0:"
    INDEX 01 01:43:29
  TRACK 105 AUDIO
    TITLE "4:cjc137_6713"
    INDEX 01 01:44:38
  TRACK 106 AUDIO
    TITLE "0:"
    INDEX 01 01:45:59
  TRACK 107 AUDIO
    TITLE "6:cjc137_6714"
    INDEX 01 01:45:65
  TRACK 108 AUDIO
    TITLE "0:"
    INDEX 01 01:47:13
  TRACK 109 AUDIO
    TITLE "5:cjc137_6715"
    INDEX 01 01:47:19
  TRACK 110 AUDIO
    TITLE "0:"
    INDEX 01 01:48:38
  TRACK 111 AUDIO
    TITLE "4:cjc137_6716"
    INDEX 01 01:49:49
  TRACK 112 AUDIO
    TITLE "0:"
    INDEX 01 01:51:11
  TRACK 113 AUDIO
    TITLE "6:cjc137_6717"
    INDEX 01 01:51:21
  TRACK 114 AUDIO
    TITLE "0:"
    INDEX 01 01:52:71
  TRACK 115 AUDIO
    TITLE "5:cjc137_6718"
    INDEX 01 01:53:02
  TRACK 116 AUDIO
    TITLE "0:"
    INDEX 01 01:54:37
  TRACK 117 AUDIO
    TITLE "4:cjc137_6719"
    INDEX 01 01:55:48
  TRACK 118 AUDIO
    TITLE "0:"
    INDEX 01 01:56:73
  TRACK 119 AUDIO
    TITLE "6:cjc137_6720"
    INDEX 01 01:57:08
  TRACK 120 AUDIO
    TITLE "0:"
    INDEX 01 01:58:32
  TRACK 121 AUDIO
    TITLE "5:cjc137_6721"
    INDEX 01 01:58:38
  TRACK 122 AUDIO
    TITLE "0:"
    INDEX 01 01:59:63
  TRACK 123 AUDIO
    TITLE "4:cjc137_6722"
    INDEX 01 02:00:71
  TRACK 124 AUDIO
    TITLE "0:"
    INDEX 01 02:02:24
  TRACK 125 AUDIO
    TITLE "6:cjc137_6723"
    INDEX 01 02:02:28
  TRACK 126 AUDIO
    TITLE "0:"
    INDEX 01 02:03:67
  TRACK 127 AUDIO
    TITLE "5:cjc137_6724"
    INDEX 01 02:03:73
  TRACK 128 AUDIO
    TITLE "0:"
    INDEX 01 02:05:23
  TRACK 129 AUDIO
    TITLE "4:cjc137_6725"
    INDEX 01 02:06:32
  TRACK 130 AUDIO
    TITLE "0:"
    INDEX 01 02:07:49
  TRACK 131 AUDIO
    TITLE "6:cjc137_6726"
    INDEX 01 02:07:53
  TRACK 132 AUDIO
    TITLE "0:"
    INDEX 01 02:09:13
  TRACK 133 AUDIO
    TITLE "5:cjc137_6727"
    INDEX 01 02:09:24
  TRACK 134 AUDIO
    TITLE "0:"
    INDEX 01 02:10:42
